<svg width="26" height="26" viewBox="0 0 26 26" fill="none" xmlns="http://www.w3.org/2000/svg">
<g clip-path="url(#clip0)">
<path d="M22.9156 18.0047C27.029 13.8913 27.0289 7.19823 22.9156 3.08482C18.8022 -1.0286 12.1092 -1.0286 7.99591 3.08482C4.50624 6.57449 3.97773 11.7645 6.40896 15.8174C6.40896 15.8174 6.58359 16.1104 6.34773 16.3461C5.00217 17.6915 0.965226 21.7286 0.965226 21.7286C-0.106116 22.7998 -0.361157 24.2978 0.588904 25.248L0.752482 25.4115C1.70254 26.3617 3.20063 26.1067 4.27189 25.0354C4.27189 25.0354 8.30029 21.0069 9.64309 19.6642C9.89026 19.417 10.1832 19.5917 10.1832 19.5917C14.2359 22.0228 19.426 21.4944 22.9156 18.0047ZM9.94361 16.0569C6.90422 13.0175 6.9043 8.07215 9.94369 5.03276C12.9831 1.99346 17.9285 1.99337 20.9678 5.03276C24.0072 8.07207 24.0072 13.0175 20.9678 16.0569C17.9284 19.0961 12.9831 19.0961 9.94361 16.0569Z" fill="#A39A80"/>
<path d="M10.6163 9.91891C10.4748 9.91891 10.331 9.8911 10.1924 9.83255C9.63865 9.5982 9.37959 8.9593 9.61394 8.40549C11.0869 4.92461 15.1171 3.29109 18.5979 4.76405C19.1516 4.9984 19.4106 5.63731 19.1763 6.19111C18.9418 6.74492 18.3031 7.00381 17.7491 6.76954C15.3743 5.76462 12.6244 6.87918 11.6195 9.25404C11.4437 9.66939 11.0405 9.91891 10.6163 9.91891Z" fill="#9A936C"/>
</g>
<defs>
<clipPath id="clip0">
<rect width="26" height="26" fill="white"/>
</clipPath>
</defs>
</svg>
